<svg width="609" height="497" viewBox="0 0 609 497" fill="none" xmlns="http://www.w3.org/2000/svg">
<path d="M128.68 415.14L128.59 368.57L105.49 407.38H101.29L78.19 368.85V415.14H69.42V351.22H76.91L103.57 396.14L129.87 351.22H137.36L137.45 415.14H128.68Z" fill="#C91717"/>
<path d="M203.01 407.2V415.14H156.63V351.22H201.74V359.16H165.76V378.79H197.81V386.55H165.76V407.19H203.01V407.2Z" fill="#C91717"/>
<path d="M217.81 351.22H244.75C265.29 351.22 279.26 364.19 279.26 383.18C279.26 402.17 265.29 415.14 244.75 415.14H217.81V351.22ZM244.2 407.2C260 407.2 270.13 397.52 270.13 383.19C270.13 368.86 259.99 359.18 244.2 359.18H226.94V407.21H244.2V407.2Z" fill="#C91717"/>
<path d="M375.41 397.61C375.41 408.66 366.28 415.14 349.11 415.14H314.6V351.22H347.29C364.09 351.22 372.31 358.07 372.31 367.93C372.31 374.05 369.21 378.98 363.73 381.81C370.94 384.37 375.41 389.85 375.41 397.61ZM332.5 364.28V376.61H344.92C350.95 376.61 354.05 374.51 354.05 370.4C354.05 366.38 350.95 364.28 344.92 364.28H332.5ZM357.15 395.6C357.15 391.22 353.86 389.12 347.65 389.12H332.5V402.09H347.66C353.86 402.08 357.15 399.98 357.15 395.6Z" fill="white"/>
<path d="M381.53 383.18C381.53 364.01 396.6 349.94 417.05 349.94C437.5 349.94 452.57 364 452.57 383.18C452.57 402.36 437.5 416.42 417.05 416.42C396.6 416.42 381.53 402.36 381.53 383.18ZM434.31 383.18C434.31 372.13 426.73 364.92 417.05 364.92C407.37 364.92 399.79 372.13 399.79 383.18C399.79 394.23 407.37 401.44 417.05 401.44C426.73 401.44 434.31 394.23 434.31 383.18Z" fill="white"/>
<path d="M457.6 409.39L463.54 396.06C469.2 399.8 477.24 402.36 484.63 402.36C492.12 402.36 495.04 400.26 495.04 397.15C495.04 387.02 458.7 394.41 458.7 370.67C458.7 359.26 468.01 349.94 487.01 349.94C495.32 349.94 503.9 351.86 510.2 355.51L504.63 368.93C498.51 365.64 492.49 364 486.92 364C479.34 364 476.6 366.56 476.6 369.75C476.6 379.52 512.85 372.22 512.85 395.77C512.85 406.91 503.54 416.41 484.54 416.41C474.03 416.42 463.63 413.59 457.6 409.39Z" fill="white"/>
<path d="M516.68 409.39L522.62 396.06C528.28 399.8 536.32 402.36 543.71 402.36C551.2 402.36 554.12 400.26 554.12 397.15C554.12 387.02 517.78 394.41 517.78 370.67C517.78 359.26 527.09 349.94 546.09 349.94C554.4 349.94 562.98 351.86 569.28 355.51L563.71 368.93C557.59 365.64 551.57 364 546 364C538.42 364 535.68 366.56 535.68 369.75C535.68 379.52 571.93 372.22 571.93 395.77C571.93 406.91 562.62 416.41 543.62 416.41C533.11 416.42 522.71 413.59 516.68 409.39Z" fill="white"/>
<path d="M608.58 213.46C608.58 257.49 574.09 283.19 508.03 283.19H501.23C567.28 283.19 601.78 257.49 601.78 213.46C601.78 180.06 583.07 158.41 555.54 149.62C575.35 138.96 588.55 119.52 588.55 93.09C588.55 52.35 555.54 26.3 493.88 26.3H500.68C562.34 26.3 595.35 52.36 595.35 93.09C595.35 119.51 582.15 138.96 562.34 149.62C589.87 158.41 608.58 180.06 608.58 213.46Z" fill="white"/>
<path d="M505.09 171.62H428.02V245.75H505.09C541.05 245.75 560.51 234.36 560.51 208.69C560.51 183.01 541.06 171.62 505.09 171.62ZM491.48 239.03C518.63 232.78 543.13 226.33 551.28 201.15C550.5 230.73 523.73 237.31 491.48 239.03Z" fill="#C91717"/>
<path d="M495.56 63.73H428.03V134.54H495.56C528.6 134.54 547.3 122.8 547.3 99.32C547.3 75.47 528.59 63.73 495.56 63.73ZM479.26 127.95C506.41 121.69 530.91 115.25 539.06 90.06C538.29 119.64 511.52 126.22 479.26 127.95Z" fill="#C91717"/>
<path d="M176.79 464.08H164.07V460.77H193.35V464.08H180.63V496.98H176.8V464.08H176.79Z" fill="white"/>
<path d="M276.78 493.67V496.98H251.18V460.77H276V464.08H255V476.96H273.73V480.22H255V493.67H276.78Z" fill="white"/>
<path d="M360.21 487.31H340.04L335.7 496.98H331.72L348.27 460.77H352.05L368.6 496.98H364.56L360.21 487.31ZM358.81 484.2L350.12 464.75L341.43 484.2H358.81Z" fill="white"/>
<path d="M463.92 460.77V496.98H460.25V468.01L446.03 492.37H444.22L429.99 468.16V496.97H426.32V460.76H429.48L445.2 487.61L460.77 460.76H463.92V460.77Z" fill="white"/>
<path d="M366.64 23.79C358.73 22.27 350.85 26.58 347.86 34.07L281.92 199.24V46.56L281.93 46.21C281.91 39.46 277.78 33.11 271.09 30.58C262.44 27.32 252.77 31.68 249.49 40.33L186.7 206.51L171 248.05L163.16 268.82C161.23 273.94 158.11 278.59 154.06 282.28C150.03 285.98 145.06 288.57 139.79 289.79C137.16 290.41 134.39 290.7 131.99 290.56C129.57 290.43 127.42 289.97 125.56 289.04C123.68 288.12 121.97 286.75 120.37 284.93C119.98 284.45 119.59 283.98 119.18 283.5L118.1 281.82C117.92 281.54 117.73 281.28 117.56 280.98L117.49 280.86L117.57 280.79C113.84 273.09 112.03 265.04 111.23 258C111.08 256.76 110.97 255.53 110.89 254.37C110.42 247.85 110.76 242.51 111.05 239.61C123.69 237.01 133.52 229.68 142.09 220.39C158.78 202.26 169.57 180.73 178.09 157.98H178.1L180.43 152.15C180.63 151.63 180.73 151.11 180.73 150.58C180.73 148.82 179.62 147.17 177.85 146.59C177.29 145.14 176.54 143.69 176.71 142.34C177.09 139.44 178.25 136.62 179.12 133.79C186.99 108.26 191.91 82.25 188.95 55.52C188.06 47.51 185.01 38.92 180.49 32.28C169.51 16.13 153.15 7.96999 133.84 5.64999C130.95 5.29999 126.69 5.54999 125.44 3.89999C125.2 1.73999 123.37 0.0599976 121.14 0.0599976H105.87C103.48 0.0599976 101.54 1.99001 101.54 4.39001V14.6C101.54 16.01 102.22 17.28 103.28 18.06C103.45 18.18 103.62 18.3 103.8 18.4C104.42 18.74 105.12 18.93 105.87 18.93H121.14C123.53 18.93 125.48 16.99 125.48 14.6V14.14C126.45 13.6 127.64 13.24 128.68 13.29C131.83 13.41 135.01 13.76 138.09 14.41C160.41 19.06 180.88 34.81 181.86 60.6C182.89 87.68 177.39 113.66 169.2 139.23C168.77 140.52 167.41 142.65 166.78 142.55C159.99 141.4 159.91 146.95 158.43 150.81C150.61 171.14 141.18 190.54 126.24 206.73C110.28 224.03 84.06 224.85 67.33 208.35C62.44 203.53 57.57 198.28 54.27 192.35C46.32 178.04 39.34 163.18 31.85 148.61C30.84 146.66 28.8 143.74 27.67 143.65C22.86 143.3 22.18 141.35 21.37 138.35C18.08 126.1 13.93 113.96 12.06 101.49C9.92001 87.21 8.72001 72.59 9.14001 58.17C9.94001 29.55 40.7 13.75 62.92 13.56C63.68 13.56 64.99 14.08 65.23 14.54C65.24 14.57 65.25 14.61 65.25 14.63C65.49 16.05 65.93 17.05 66.52 17.77C67.3 18.54 68.38 19.03 69.58 19.03H84.98C87.38 19.03 89.33 17.08 89.33 14.67V4.45001C89.33 2.05001 87.38 0.100006 84.98 0.100006H69.58C67.78 0.100006 66.23 1.19999 65.57 2.76999C62.75 3.99999 59.87 5.33999 56.77 6.17999C48.71 8.34999 40.16 9.62001 32.78 13.23C16.91 21 4.13001 32.76 2.03001 51.2C0.47001 64.94 0.620012 79.25 2.61001 92.92C5.06001 109.63 10.29 125.92 14.15 142.43C14.56 144.16 14.59 147.15 13.6 147.83C10.24 150.17 10.9 152.74 12.03 155.69C20.49 177.78 30.73 198.94 46.36 216.92C56.39 228.46 67.71 238.41 84.03 240.2C84.58 240.26 85.21 240.67 85.79 241.24C86.28 241.72 86.74 242.3 87.08 242.91C87.08 242.92 87.09 242.93 87.09 242.94C87.37 243.56 87.56 244.16 87.7 244.68C87.79 245.18 87.88 245.69 87.98 246.19C88 246.3 88 246.36 88 246.36L88.06 246.63C88.45 248.8 88.84 250.96 89.3 253.07L89.32 253.2L91.43 264.14C92.3 271.44 93.76 278.89 96.75 286.42L98.17 289.51L98.89 291.06C99.15 291.58 99.47 292.08 99.76 292.58L101.56 295.63L103.76 298.58C106.83 302.43 110.8 305.99 115.46 308.5C120.11 311.06 125.29 312.39 130.2 312.86C135.15 313.31 139.82 312.96 144.41 312.1C153.6 310.35 162.32 306.19 169.43 300.2C176.58 294.24 182.24 286.51 185.84 277.92L194.46 257.46L211.72 216.53L248.31 129.75V289.95H281.93V289.92L281.95 289.93L346.67 127.81V283.7H380.29V40.3C380.28 32.24 374.56 25.32 366.64 23.79ZM43.13 189.88C50.15 201.33 97.44 272.14 150.43 188.38C114.69 246.66 77.16 247.87 43.13 189.88Z" fill="white"/>
<path d="M85.71 79.51C84.29 86.36 86.76 92.15 90.6 97.5C93.76 101.89 97.19 106.09 100.32 110.5C103.37 114.8 105.42 119.49 105.15 124.96C104.78 132.37 99.27 138.03 91.84 138.38C88.95 138.52 86.05 138.47 83.15 138.44C79.71 138.41 78.47 136.91 79.04 133.5C79.82 128.84 80.63 124.19 81.46 119.54C82.21 115.32 81.2 114.07 76.94 114.06C72.29 114.05 67.64 114.08 62.99 114.05C59.54 114.03 58.26 112.61 58.79 109.17C59.58 104.05 60.46 98.95 61.42 93.86C61.98 90.88 63.82 89.42 66.87 89.38C71.67 89.33 76.48 89.27 81.28 89.41C83.42 89.47 84.07 88.61 84.15 86.63C84.25 84.25 84.63 81.88 84.88 79.5C85.16 79.49 85.44 79.5 85.71 79.51Z" fill="#C91717"/>
<path d="M108.41 122.89C108.29 120.72 108.37 118.52 107.99 116.4C107.19 111.86 104.75 108.06 102.06 104.43C99.02 100.33 95.81 96.36 92.9 92.17C90.08 88.1 88.3 83.61 88.53 78.49C88.87 71.09 94.41 65.41 101.83 65.09C104.8 64.96 107.77 65.01 110.74 65.05C113.75 65.09 115.03 66.59 114.54 69.62C113.77 74.35 112.91 79.07 112.08 83.8C111.33 88.13 112.37 89.4 116.73 89.41C121.3 89.42 125.87 89.4 130.44 89.42C134.05 89.44 135.31 90.83 134.74 94.42C133.95 99.46 133.06 104.48 132.13 109.49C131.58 112.47 129.79 113.93 126.69 113.96C121.89 114.02 117.09 114.07 112.3 113.94C110.19 113.88 109.43 114.76 109.35 116.71C109.27 118.78 109.06 120.85 108.91 122.92C108.75 122.92 108.58 122.91 108.41 122.89Z" fill="#C91717"/>
</svg>
