<?xml version="1.0" encoding="utf-8"?>
<!-- Generator: Adobe Illustrator 24.1.1, SVG Export Plug-In . SVG Version: 6.00 Build 0)  -->
<svg version="1.1" id="Layer_1" xmlns="http://www.w3.org/2000/svg" xmlns:xlink="http://www.w3.org/1999/xlink" x="0px" y="0px"
	 viewBox="0 0 1080 1080" style="enable-background:new 0 0 1080 1080;" xml:space="preserve">
<style type="text/css">
	.st0{fill:#FFFFFF;}
	.st1{fill:#C91717;}
</style>
<rect x="-0.42" y="-0.17" class="st0" width="1080" height="1080"/>
<g>
	<path class="st1" d="M355.68,705.14l-0.09-46.57l-23.1,38.81h-4.2l-23.1-38.53v46.29h-8.77v-63.92h7.49l26.66,44.92l26.3-44.92
		h7.49l0.09,63.92H355.68z"/>
	<path class="st1" d="M430.01,697.2v7.94h-46.38v-63.92h45.11v7.94h-35.98v19.63h32.05v7.76h-32.05v20.64H430.01z"/>
	<path class="st1" d="M444.81,641.22h26.94c20.54,0,34.51,12.97,34.51,31.96s-13.97,31.96-34.51,31.96h-26.94V641.22z M471.2,697.2
		c15.8,0,25.93-9.68,25.93-24.01s-10.14-24.01-25.93-24.01h-17.26v48.03H471.2z"/>
	<path d="M602.41,687.61c0,11.05-9.13,17.53-26.3,17.53H541.6v-63.92h32.69c16.8,0,25.02,6.85,25.02,16.71
		c0,6.12-3.1,11.05-8.58,13.88C597.94,674.37,602.41,679.85,602.41,687.61z M559.5,654.28v12.33h12.42c6.03,0,9.13-2.1,9.13-6.21
		c0-4.02-3.1-6.12-9.13-6.12H559.5z M584.15,685.6c0-4.38-3.29-6.48-9.5-6.48H559.5v12.97h15.16
		C580.86,692.08,584.15,689.98,584.15,685.6z"/>
	<path d="M608.53,673.18c0-19.17,15.07-33.24,35.52-33.24s35.52,14.06,35.52,33.24s-15.07,33.24-35.52,33.24
		S608.53,692.36,608.53,673.18z M661.31,673.18c0-11.05-7.58-18.26-17.26-18.26c-9.68,0-17.26,7.21-17.26,18.26
		s7.58,18.26,17.26,18.26C653.73,691.44,661.31,684.23,661.31,673.18z"/>
	<path d="M684.6,699.39l5.94-13.33c5.66,3.74,13.7,6.3,21.09,6.3c7.49,0,10.41-2.1,10.41-5.21c0-10.13-36.34-2.74-36.34-26.48
		c0-11.41,9.31-20.73,28.31-20.73c8.31,0,16.89,1.92,23.19,5.57l-5.57,13.42c-6.12-3.29-12.14-4.93-17.71-4.93
		c-7.58,0-10.32,2.56-10.32,5.75c0,9.77,36.25,2.47,36.25,26.02c0,11.14-9.31,20.64-28.31,20.64
		C701.03,706.42,690.63,703.59,684.6,699.39z"/>
	<path d="M743.68,699.39l5.94-13.33c5.66,3.74,13.7,6.3,21.09,6.3c7.49,0,10.41-2.1,10.41-5.21c0-10.13-36.34-2.74-36.34-26.48
		c0-11.41,9.31-20.73,28.31-20.73c8.31,0,16.89,1.92,23.19,5.57l-5.57,13.42c-6.12-3.29-12.14-4.93-17.71-4.93
		c-7.58,0-10.32,2.56-10.32,5.75c0,9.77,36.25,2.47,36.25,26.02c0,11.14-9.31,20.64-28.31,20.64
		C760.11,706.42,749.71,703.59,743.68,699.39z"/>
</g>
<g>
	<path d="M835.58,503.46c0,44.03-34.49,69.73-100.55,69.73h-6.8c66.05,0,100.55-25.7,100.55-69.73c0-33.4-18.71-55.05-46.24-63.84
		c19.81-10.66,33.01-30.1,33.01-56.53c0-40.74-33.01-66.79-94.67-66.79h6.8c61.66,0,94.67,26.06,94.67,66.79
		c0,26.42-13.2,45.87-33.01,56.53C816.87,448.41,835.58,470.06,835.58,503.46z"/>
</g>
<g>
	<path class="st1" d="M732.09,461.62h-77.07v74.13h77.07c35.96,0,55.42-11.39,55.42-37.06
		C787.51,473.01,768.06,461.62,732.09,461.62z M718.48,529.03c27.15-6.25,51.65-12.7,59.8-37.88
		C777.5,520.73,750.73,527.31,718.48,529.03z"/>
</g>
<g>
	<path class="st1" d="M722.56,353.73h-67.53v70.81h67.53c33.04,0,51.74-11.74,51.74-35.22C774.3,365.47,755.59,353.73,722.56,353.73
		z M706.26,417.95c27.15-6.26,51.65-12.7,59.8-37.89C765.29,409.64,738.52,416.22,706.26,417.95z"/>
</g>
<g>
	<path d="M403.79,754.08h-12.72v-3.31h29.28v3.31h-12.72v32.9h-3.83V754.08z"/>
	<path d="M503.78,783.67v3.31h-25.6v-36.21H503v3.31h-21v12.88h18.73v3.26H482v13.45H503.78z"/>
	<path d="M587.21,777.31h-20.17l-4.34,9.67h-3.98l16.55-36.21h3.78l16.55,36.21h-4.04L587.21,777.31z M585.81,774.2l-8.69-19.45
		l-8.69,19.45H585.81z"/>
	<path d="M690.92,750.77v36.21h-3.67v-28.97l-14.22,24.36h-1.81l-14.23-24.21v28.81h-3.67v-36.21h3.16l15.72,26.85l15.57-26.85
		H690.92z"/>
</g>
<path d="M593.64,313.79c-7.91-1.52-15.79,2.79-18.78,10.28l-65.94,165.17V336.56l0.01-0.35c-0.02-6.75-4.15-13.1-10.84-15.63
	c-8.65-3.26-18.32,1.1-21.6,9.75l-62.79,166.18l-15.7,41.54l-7.84,20.77c-1.93,5.12-5.05,9.77-9.1,13.46
	c-4.03,3.7-9,6.29-14.27,7.51c-2.63,0.62-5.4,0.91-7.8,0.77c-2.42-0.13-4.57-0.59-6.43-1.52c-1.88-0.92-3.59-2.29-5.19-4.11
	c-0.39-0.48-0.78-0.95-1.19-1.43l-1.08-1.68c-0.18-0.28-0.37-0.54-0.54-0.84l-0.07-0.12l0.08-0.07c-3.73-7.7-5.54-15.75-6.34-22.79
	c-0.15-1.24-0.26-2.47-0.34-3.63c-0.47-6.52-0.13-11.86,0.16-14.76c12.64-2.6,22.47-9.93,31.04-19.22
	c16.69-18.13,27.48-39.66,36-62.41h0.01l2.33-5.83c0.2-0.52,0.3-1.04,0.3-1.57c0-1.76-1.11-3.41-2.88-3.99
	c-0.56-1.45-1.31-2.9-1.14-4.25c0.38-2.9,1.54-5.72,2.41-8.55c7.87-25.53,12.79-51.54,9.83-78.27c-0.89-8.01-3.94-16.6-8.46-23.24
	c-10.98-16.15-27.34-24.31-46.65-26.63c-2.89-0.35-7.15-0.1-8.4-1.75c-0.24-2.16-2.07-3.84-4.3-3.84h-15.27
	c-2.39,0-4.33,1.93-4.33,4.33v10.21c0,1.41,0.68,2.68,1.74,3.46c0.17,0.12,0.34,0.24,0.52,0.34c0.62,0.34,1.32,0.53,2.07,0.53h15.27
	c2.39,0,4.34-1.94,4.34-4.33v-0.46c0.97-0.54,2.16-0.9,3.2-0.85c3.15,0.12,6.33,0.47,9.41,1.12c22.32,4.65,42.79,20.4,43.77,46.19
	c1.03,27.08-4.47,53.06-12.66,78.63c-0.43,1.29-1.79,3.42-2.42,3.32c-6.79-1.15-6.87,4.4-8.35,8.26
	c-7.82,20.33-17.25,39.73-32.19,55.92c-15.96,17.3-42.18,18.12-58.91,1.62c-4.89-4.82-9.76-10.07-13.06-16
	c-7.95-14.31-14.93-29.17-22.42-43.74c-1.01-1.95-3.05-4.87-4.18-4.96c-4.81-0.35-5.49-2.3-6.3-5.3
	c-3.29-12.25-7.44-24.39-9.31-36.86c-2.14-14.28-3.34-28.9-2.92-43.32c0.8-28.62,31.56-44.42,53.78-44.61
	c0.76,0,2.07,0.52,2.31,0.98c0.01,0.03,0.02,0.07,0.02,0.09c0.24,1.42,0.68,2.42,1.27,3.14c0.78,0.77,1.86,1.26,3.06,1.26h15.4
	c2.4,0,4.35-1.95,4.35-4.36v-10.22c0-2.4-1.95-4.35-4.35-4.35h-15.4c-1.8,0-3.35,1.1-4.01,2.67c-2.82,1.23-5.7,2.57-8.8,3.41
	c-8.06,2.17-16.61,3.44-23.99,7.05c-15.87,7.77-28.65,19.53-30.75,37.97c-1.56,13.74-1.41,28.05,0.58,41.72
	c2.45,16.71,7.68,33,11.54,49.51c0.41,1.73,0.44,4.72-0.55,5.4c-3.36,2.34-2.7,4.91-1.57,7.86c8.46,22.09,18.7,43.25,34.33,61.23
	c10.03,11.54,21.35,21.49,37.67,23.28c0.55,0.06,1.18,0.47,1.76,1.04c0.49,0.48,0.95,1.06,1.29,1.67c0,0.01,0.01,0.02,0.01,0.03
	c0.28,0.62,0.47,1.22,0.61,1.74c0.09,0.5,0.18,1.01,0.28,1.51c0.02,0.11,0.02,0.17,0.02,0.17l0.06,0.27
	c0.39,2.17,0.78,4.33,1.24,6.44l0.02,0.13l2.11,10.94c0.87,7.3,2.33,14.75,5.32,22.28l1.42,3.09l0.72,1.55
	c0.26,0.52,0.58,1.02,0.87,1.52l1.8,3.05l2.2,2.95c3.07,3.85,7.04,7.41,11.7,9.92c4.65,2.56,9.83,3.89,14.74,4.36
	c4.95,0.45,9.62,0.1,14.21-0.76c9.19-1.75,17.91-5.91,25.02-11.9c7.15-5.96,12.81-13.69,16.41-22.28l8.62-20.46l17.26-40.93
	l36.59-86.78v160.2h33.62v-0.03l0.02,0.01l64.72-162.12v155.89h33.62V330.3C607.28,322.24,601.56,315.32,593.64,313.79z
	 M270.13,479.88c7.02,11.45,54.31,82.26,107.3-1.5C341.69,536.66,304.16,537.87,270.13,479.88z"/>
<g>
	<path class="st1" d="M312.71,369.51c-1.42,6.85,1.05,12.64,4.89,17.99c3.16,4.39,6.59,8.59,9.72,13c3.05,4.3,5.1,8.99,4.83,14.46
		c-0.37,7.41-5.88,13.07-13.31,13.42c-2.89,0.14-5.79,0.09-8.69,0.06c-3.44-0.03-4.68-1.53-4.11-4.94
		c0.78-4.66,1.59-9.31,2.42-13.96c0.75-4.22-0.26-5.47-4.52-5.48c-4.65-0.01-9.3,0.02-13.95-0.01c-3.45-0.02-4.73-1.44-4.2-4.88
		c0.79-5.12,1.67-10.22,2.63-15.31c0.56-2.98,2.4-4.44,5.45-4.48c4.8-0.05,9.61-0.11,14.41,0.03c2.14,0.06,2.79-0.8,2.87-2.78
		c0.1-2.38,0.48-4.75,0.73-7.13C312.16,369.49,312.44,369.5,312.71,369.51z"/>
	<path class="st1" d="M335.41,412.89c-0.12-2.17-0.04-4.37-0.42-6.49c-0.8-4.54-3.24-8.34-5.93-11.97
		c-3.04-4.1-6.25-8.07-9.16-12.26c-2.82-4.07-4.6-8.56-4.37-13.68c0.34-7.4,5.88-13.08,13.3-13.4c2.97-0.13,5.94-0.08,8.91-0.04
		c3.01,0.04,4.29,1.54,3.8,4.57c-0.77,4.73-1.63,9.45-2.46,14.18c-0.75,4.33,0.29,5.6,4.65,5.61c4.57,0.01,9.14-0.01,13.71,0.01
		c3.61,0.02,4.87,1.41,4.3,5c-0.79,5.04-1.68,10.06-2.61,15.07c-0.55,2.98-2.34,4.44-5.44,4.47c-4.8,0.06-9.6,0.11-14.39-0.02
		c-2.11-0.06-2.87,0.82-2.95,2.77c-0.08,2.07-0.29,4.14-0.44,6.21C335.75,412.92,335.58,412.91,335.41,412.89z"/>
</g>
</svg>
