<svg width="1200" height="2084" viewBox="0 0 1200 2084" fill="none" xmlns="http://www.w3.org/2000/svg">
<path d="M317.847 162.729C313.248 159.011 306.653 159.08 302.128 162.899L202.335 247.116L255.094 148.205L255.221 147.982C257.541 143.602 257.06 138.061 253.6 134.11C249.123 129.009 241.351 128.492 236.237 132.963L138.136 218.923L113.611 240.409L101.355 251.155C98.3357 253.805 94.7076 255.739 90.8088 256.73C86.9195 257.735 82.8048 257.695 78.9692 256.665C77.0511 256.158 75.1564 255.388 73.65 254.468C72.1271 253.548 70.8933 252.507 70.0097 251.262C69.1096 250.016 68.4752 248.538 68.0676 246.806C67.9808 246.36 67.8906 245.921 67.7908 245.468L67.6717 244.006C67.6518 243.763 67.6186 243.529 67.6121 243.276L67.6082 243.174L67.6843 243.156C67.9286 236.879 69.5377 231.038 71.4521 226.201C71.7834 225.346 72.1371 224.511 72.4861 223.732C74.4346 219.346 76.5001 216.004 77.6901 214.225C86.7772 216.909 95.6782 215.557 104.44 212.5C121.518 206.522 135.947 196.302 149.328 184.508L149.335 184.512L152.859 181.54C153.168 181.272 153.412 180.97 153.596 180.626C154.204 179.486 154.055 178.034 153.108 177.046C153.247 175.914 153.262 174.715 153.839 173.899C155.087 172.152 156.813 170.726 158.354 169.193C172.275 155.373 184.45 140.223 191.769 121.884C193.96 116.387 194.952 109.768 194.319 103.905C192.786 89.6481 185.007 78.7085 173.299 70.533C171.548 69.3076 168.702 67.9975 168.462 66.4967C169.053 65.0144 168.448 63.2937 167.003 62.5231L157.111 57.2466C155.562 56.4207 153.639 57.0007 152.809 58.5555L149.281 65.1699C148.794 66.0833 148.796 67.141 149.213 68.0126C149.282 68.1491 149.35 68.2856 149.432 68.4126C149.717 68.8471 150.104 69.212 150.59 69.4712L160.483 74.7478C162.031 75.5736 163.965 74.9907 164.791 73.4423L164.949 73.1443C165.764 73.1297 166.66 73.3077 167.316 73.6994C169.315 74.8656 171.255 76.1912 173.025 77.6766C185.878 88.4017 193.697 105.679 185.42 122.725C176.73 140.624 164.189 155.554 150.048 169.289C149.324 169.976 147.707 170.886 147.333 170.604C143.332 167.513 141.362 171.08 139.069 173.07C126.978 183.538 114.165 192.847 98.8924 198.173C82.5749 203.866 65.3054 195.337 60.1687 178.866C58.6663 174.054 57.3255 168.97 57.2367 163.988C57.0313 151.971 57.6443 139.932 57.8267 127.905C57.8462 126.292 57.5336 123.696 56.8326 123.247C53.8375 121.358 54.0708 119.86 54.5827 117.637C56.6843 108.564 58.1908 99.265 61.2883 90.5404C64.8364 80.5498 69.111 70.6638 74.3659 61.4672C84.7738 43.2026 110.161 43.5959 124.621 51.151C125.114 51.4136 125.783 52.2031 125.779 52.5841C125.775 52.607 125.768 52.6363 125.761 52.6493C125.426 53.6521 125.365 54.452 125.499 55.1223C125.738 55.8907 126.268 56.5813 127.046 56.996L137.022 62.3175C138.577 63.1468 140.514 62.5573 141.347 60.996L144.879 54.3752C145.708 52.8204 145.119 50.8833 143.564 50.054L133.587 44.7325C132.421 44.1105 131.037 44.2875 130.067 45.0765C127.815 44.8989 125.486 44.7718 123.187 44.2448C117.216 42.8655 111.238 40.7338 105.21 40.5223C92.2436 40.0721 79.9007 43.2745 72.1683 54.4949C66.4098 62.8571 61.5621 72.1795 58.1277 81.723C53.9407 93.3949 51.6999 105.755 48.4955 117.785C48.1633 119.047 47.1496 120.995 46.2732 121.093C43.2879 121.448 42.8274 123.341 42.5401 125.643C40.3876 142.877 39.7096 160.123 43.6222 177.172C46.1323 188.114 50.0276 198.472 59.9817 205.271C60.3173 205.5 60.5838 205.983 60.7626 206.553C60.9141 207.033 61.0117 207.568 61.0212 208.08C61.0177 208.087 61.0208 208.097 61.0173 208.103C60.9845 208.602 60.9002 209.056 60.8112 209.441C60.6968 209.796 60.5788 210.158 60.4709 210.516C60.4458 210.594 60.4251 210.633 60.4251 210.633L60.3706 210.829C59.8734 212.369 59.3797 213.903 58.9486 215.429L58.9166 215.521L56.5032 223.337C54.5443 228.367 52.9159 233.698 52.2509 239.609L52.1031 242.102L52.0339 243.354C52.0227 243.781 52.0572 244.216 52.0723 244.64L52.1844 247.238L52.5903 249.909C53.2488 253.464 54.5905 257.142 56.7421 260.378C58.8699 263.644 61.7662 266.295 64.7846 268.296C67.8359 270.298 70.9822 271.685 74.253 272.714C80.8113 274.756 87.8978 275.074 94.5738 273.651C101.265 272.26 107.603 269.208 112.904 264.887L125.558 254.611L150.883 234.06L204.574 190.484L149.217 294.267L170.997 305.885L171.007 305.865L171.017 305.879L268.965 223.216L215.098 324.207L236.878 335.824L320.985 178.141C323.763 172.916 322.449 166.457 317.847 162.729ZM50.8734 158.539C51.4646 168.382 57.6323 230.596 120.904 194.644C77.6121 220.05 52.8808 207.866 50.8734 158.539Z" fill="#252222" fill-opacity="0.2"/>
<path d="M1151.53 1794.31C1144.61 1790.18 1135.73 1791.54 1130.36 1797.55L1011.93 1930.23L1064.13 1786.75L1064.25 1786.42C1066.54 1780.07 1064.83 1772.69 1059.41 1768.03C1052.4 1762.01 1041.82 1762.8 1035.78 1769.8L919.96 1904.51L891.005 1938.17L876.536 1955.01C872.972 1959.16 868.451 1962.47 863.383 1964.55C858.331 1966.65 852.775 1967.39 847.405 1966.73C844.722 1966.41 842.02 1965.74 839.812 1964.79C837.582 1963.84 835.719 1962.67 834.289 1961.16C832.837 1959.65 831.698 1957.78 830.817 1955.52C830.615 1954.94 830.409 1954.36 830.188 1953.77L829.747 1951.82C829.674 1951.5 829.584 1951.19 829.527 1950.85L829.502 1950.71L829.601 1950.68C828.728 1942.16 829.779 1933.98 831.434 1927.09C831.717 1925.87 832.035 1924.68 832.356 1923.56C834.143 1917.28 836.288 1912.37 837.552 1909.75C850.32 1911.63 862.063 1908.1 873.293 1902.3C895.175 1890.97 912.676 1874.42 928.46 1855.96L928.469 1855.96L932.652 1851.28C933.018 1850.86 933.29 1850.4 933.471 1849.9C934.073 1848.25 933.594 1846.32 932.129 1845.17C932.098 1843.62 931.889 1842 932.51 1840.79C933.859 1838.19 935.913 1835.94 937.698 1833.58C953.822 1812.27 967.337 1789.51 973.694 1763.38C975.596 1755.55 975.667 1746.44 973.689 1738.65C968.892 1719.72 956.307 1706.46 938.954 1697.68C936.358 1696.36 932.269 1695.14 931.658 1693.16C932.171 1691.05 931.026 1688.84 928.93 1688.08L914.58 1682.86C912.334 1682.04 909.851 1683.19 909.031 1685.45L905.54 1695.04C905.058 1696.37 905.263 1697.8 905.993 1698.89C906.111 1699.06 906.23 1699.23 906.365 1699.39C906.831 1699.92 907.424 1700.34 908.129 1700.59L922.479 1705.81C924.725 1706.63 927.221 1705.48 928.038 1703.23L928.195 1702.8C929.291 1702.62 930.533 1702.69 931.493 1703.09C934.412 1704.28 937.281 1705.7 939.953 1707.36C959.338 1719.36 973.191 1741.16 965.295 1765.73C957.005 1791.53 942.954 1814.07 926.516 1835.3C925.671 1836.36 923.665 1837.9 923.107 1837.59C917.119 1834.19 915.146 1839.38 912.436 1842.5C898.137 1858.93 882.643 1873.94 863.068 1884.04C842.155 1894.84 817.235 1886.65 807.154 1865.42C804.206 1859.22 801.424 1852.62 800.351 1845.92C797.772 1829.76 796.293 1813.41 794.235 1797.15C793.953 1794.98 793.034 1791.54 792.003 1791.06C787.602 1789.09 787.63 1787.03 787.894 1783.93C788.99 1771.29 789.241 1758.47 791.747 1746.11C794.617 1731.96 798.488 1717.81 803.812 1704.4C814.349 1677.78 848.657 1673.45 869.603 1680.86C870.317 1681.12 871.37 1682.06 871.439 1682.57C871.438 1682.61 871.434 1682.65 871.427 1682.67C871.167 1684.08 871.238 1685.17 871.547 1686.05C872.017 1687.04 872.864 1687.87 873.992 1688.28L888.464 1693.55C890.719 1694.37 893.218 1693.2 894.042 1690.94L897.536 1681.33C898.357 1679.08 897.191 1676.58 894.935 1675.76L880.463 1670.49C878.772 1669.88 876.939 1670.38 875.782 1671.63C872.712 1671.82 869.547 1672.1 866.347 1671.83C858.03 1671.11 849.561 1669.38 841.392 1670.25C823.822 1672.13 807.791 1678.81 799.514 1695.42C793.35 1707.8 788.599 1721.3 785.796 1734.82C782.385 1751.36 781.731 1768.46 779.714 1785.3C779.508 1787.06 778.514 1789.88 777.351 1790.18C773.394 1791.23 773.135 1793.87 773.189 1797.03C773.587 1820.68 775.976 1844.07 784.517 1866.31C789.998 1880.58 797.234 1893.8 811.959 1901.07C812.455 1901.31 812.907 1901.91 813.257 1902.64C813.554 1903.26 813.788 1903.96 813.898 1904.65C813.895 1904.66 813.901 1904.68 813.898 1904.69C813.949 1905.36 813.922 1905.99 813.876 1906.53C813.79 1907.03 813.7 1907.54 813.623 1908.04C813.604 1908.15 813.584 1908.21 813.584 1908.21L813.548 1908.49C813.172 1910.66 812.8 1912.82 812.511 1914.96L812.486 1915.09L810.728 1926.09C809.05 1933.25 807.875 1940.75 808.111 1948.85L808.389 1952.24L808.536 1953.94C808.602 1954.52 808.732 1955.1 808.834 1955.67L809.482 1959.15L810.541 1962.67C812.11 1967.34 814.624 1972.04 818.145 1975.99C821.64 1979.99 826.053 1983.01 830.506 1985.13C835.004 1987.25 839.512 1988.51 844.12 1989.28C853.354 1990.77 862.971 1989.84 871.701 1986.65C880.457 1983.49 888.419 1978.16 894.739 1971.32L909.834 1955.04L940.047 1922.48L1004.1 1853.43L949.332 2003.98L980.926 2015.47L980.936 2015.45L980.952 2015.46L1097.2 1885.24L1043.9 2031.73L1075.5 2043.23L1158.71 1814.49C1161.45 1806.92 1158.44 1798.46 1151.53 1794.31ZM790.726 1839.79C793.409 1852.95 813.641 1935.67 892.074 1875.07C838.563 1917.62 802.881 1905.92 790.726 1839.79Z" fill="#252222" fill-opacity="0.2"/>
<path d="M91 119H1020V117H91V119ZM1021 120V1980H1023V120H1021ZM1020 1981H91V1983H1020V1981ZM90 1980V120H88V1980H90ZM91 1981C90.4477 1981 90 1980.55 90 1980H88C88 1981.66 89.3431 1983 91 1983V1981ZM1021 1980C1021 1980.55 1020.55 1981 1020 1981V1983C1021.66 1983 1023 1981.66 1023 1980H1021ZM1020 119C1020.55 119 1021 119.448 1021 120H1023C1023 118.343 1021.66 117 1020 117V119ZM91 117C89.3432 117 88 118.343 88 120H90C90 119.448 90.4477 119 91 119V117Z" fill="white" fill-opacity="0.1"/>
<rect x="89" y="86" width="55.375" height="26" rx="2" fill="#404040"/>
<rect x="89.5" y="86.5" width="54.375" height="25" rx="1.5" stroke="black" stroke-opacity="0.14902"/>
<path d="M98.3438 96C98.2969 95.6042 98.1068 95.2969 97.7734 95.0781C97.4401 94.8594 97.0313 94.75 96.5469 94.75C96.1927 94.75 95.8828 94.8073 95.6172 94.9219C95.3542 95.0365 95.1484 95.194 95 95.3945C94.8542 95.5951 94.7813 95.8229 94.7813 96.0781C94.7813 96.2917 94.832 96.4753 94.9336 96.6289C95.0378 96.7799 95.1706 96.9062 95.332 97.0078C95.4935 97.1068 95.6628 97.1888 95.8398 97.2539C96.0169 97.3164 96.1797 97.3672 96.3281 97.4062L97.1406 97.625C97.349 97.6797 97.5807 97.7552 97.8359 97.8516C98.0938 97.9479 98.3398 98.0794 98.5742 98.2461C98.8112 98.4102 99.0065 98.6211 99.1602 98.8789C99.3138 99.1367 99.3906 99.4531 99.3906 99.8281C99.3906 100.26 99.2773 100.651 99.0508 101C98.8268 101.349 98.4987 101.626 98.0664 101.832C97.6367 102.038 97.1146 102.141 96.5 102.141C95.9271 102.141 95.431 102.048 95.0117 101.863C94.5951 101.678 94.2669 101.421 94.0273 101.09C93.7904 100.759 93.6563 100.375 93.625 99.9375H94.625C94.651 100.24 94.7526 100.49 94.9297 100.687C95.1094 100.883 95.3359 101.029 95.6094 101.125C95.8854 101.219 96.1823 101.266 96.5 101.266C96.8698 101.266 97.2018 101.206 97.4961 101.086C97.7904 100.964 98.0234 100.794 98.1953 100.578C98.3672 100.359 98.4531 100.104 98.4531 99.8125C98.4531 99.5469 98.3789 99.3307 98.2305 99.1641C98.082 98.9974 97.8867 98.862 97.6445 98.7578C97.4023 98.6536 97.1406 98.5625 96.8594 98.4844L95.875 98.2031C95.25 98.0234 94.7552 97.7669 94.3906 97.4336C94.026 97.1003 93.8438 96.6641 93.8438 96.125C93.8438 95.6771 93.9648 95.2865 94.207 94.9531C94.4518 94.6172 94.7799 94.3568 95.1914 94.1719C95.6055 93.9844 96.0677 93.8906 96.5781 93.8906C97.0938 93.8906 97.5521 93.9831 97.9531 94.168C98.3542 94.3503 98.6719 94.6003 98.9062 94.918C99.1432 95.2357 99.2682 95.5964 99.2813 96H98.3438ZM103.374 102.125C102.796 102.125 102.297 101.997 101.878 101.742C101.461 101.484 101.14 101.125 100.913 100.664C100.689 100.201 100.577 99.6615 100.577 99.0469C100.577 98.4323 100.689 97.8906 100.913 97.4219C101.14 96.9505 101.455 96.5833 101.858 96.3203C102.265 96.0547 102.739 95.9219 103.28 95.9219C103.593 95.9219 103.901 95.974 104.206 96.0781C104.511 96.1823 104.788 96.3516 105.038 96.5859C105.288 96.8177 105.487 97.125 105.636 97.5078C105.784 97.8906 105.858 98.362 105.858 98.9219V99.3125H101.233V98.5156H104.921C104.921 98.1771 104.853 97.875 104.718 97.6094C104.585 97.3437 104.395 97.1341 104.147 96.9805C103.903 96.8268 103.614 96.75 103.28 96.75C102.913 96.75 102.595 96.8411 102.327 97.0234C102.062 97.2031 101.857 97.4375 101.714 97.7266C101.571 98.0156 101.499 98.3255 101.499 98.6562V99.1875C101.499 99.6406 101.577 100.025 101.733 100.34C101.892 100.652 102.112 100.891 102.394 101.055C102.675 101.216 103.002 101.297 103.374 101.297C103.616 101.297 103.835 101.263 104.03 101.195C104.228 101.125 104.399 101.021 104.542 100.883C104.685 100.742 104.796 100.568 104.874 100.359L105.765 100.609C105.671 100.911 105.513 101.177 105.292 101.406C105.071 101.633 104.797 101.81 104.472 101.937C104.146 102.063 103.78 102.125 103.374 102.125ZM109.698 102.125C109.136 102.125 108.651 101.992 108.245 101.727C107.839 101.461 107.526 101.095 107.308 100.629C107.089 100.163 106.979 99.6302 106.979 99.0312C106.979 98.4219 107.091 97.8841 107.315 97.418C107.542 96.9492 107.857 96.5833 108.261 96.3203C108.667 96.0547 109.141 95.9219 109.683 95.9219C110.104 95.9219 110.485 96 110.823 96.1562C111.162 96.3125 111.439 96.5312 111.655 96.8125C111.871 97.0937 112.006 97.4219 112.058 97.7969H111.136C111.065 97.5234 110.909 97.2812 110.667 97.0703C110.427 96.8568 110.104 96.75 109.698 96.75C109.339 96.75 109.024 96.8437 108.753 97.0312C108.485 97.2161 108.275 97.4779 108.124 97.8164C107.976 98.1523 107.901 98.5469 107.901 99C107.901 99.4635 107.974 99.8672 108.12 100.211C108.269 100.555 108.477 100.822 108.745 101.012C109.016 101.202 109.334 101.297 109.698 101.297C109.938 101.297 110.155 101.255 110.351 101.172C110.546 101.089 110.711 100.969 110.847 100.812C110.982 100.656 111.078 100.469 111.136 100.25H112.058C112.006 100.604 111.877 100.923 111.671 101.207C111.468 101.488 111.198 101.712 110.862 101.879C110.529 102.043 110.141 102.125 109.698 102.125ZM116.015 96V96.7812H112.905V96H116.015ZM113.812 94.5625H114.733V100.281C114.733 100.542 114.771 100.737 114.847 100.867C114.925 100.995 115.024 101.081 115.144 101.125C115.266 101.167 115.395 101.187 115.53 101.187C115.632 101.187 115.715 101.182 115.78 101.172C115.845 101.159 115.897 101.148 115.937 101.141L116.124 101.969C116.062 101.992 115.974 102.016 115.862 102.039C115.75 102.065 115.608 102.078 115.437 102.078C115.176 102.078 114.921 102.022 114.671 101.91C114.424 101.798 114.218 101.628 114.054 101.398C113.892 101.169 113.812 100.88 113.812 100.531V94.5625ZM117.401 102V96H118.323V102H117.401ZM117.87 95C117.69 95 117.535 94.9388 117.405 94.8164C117.278 94.694 117.214 94.5469 117.214 94.375C117.214 94.2031 117.278 94.056 117.405 93.9336C117.535 93.8112 117.69 93.75 117.87 93.75C118.05 93.75 118.203 93.8112 118.331 93.9336C118.461 94.056 118.526 94.2031 118.526 94.375C118.526 94.5469 118.461 94.694 118.331 94.8164C118.203 94.9388 118.05 95 117.87 95ZM122.449 102.125C121.908 102.125 121.432 101.996 121.023 101.738C120.617 101.48 120.299 101.12 120.07 100.656C119.844 100.193 119.73 99.651 119.73 99.0312C119.73 98.4062 119.844 97.8607 120.07 97.3945C120.299 96.9284 120.617 96.5664 121.023 96.3086C121.432 96.0508 121.908 95.9219 122.449 95.9219C122.991 95.9219 123.465 96.0508 123.871 96.3086C124.28 96.5664 124.598 96.9284 124.824 97.3945C125.053 97.8607 125.168 98.4062 125.168 99.0312C125.168 99.651 125.053 100.193 124.824 100.656C124.598 101.12 124.28 101.48 123.871 101.738C123.465 101.996 122.991 102.125 122.449 102.125ZM122.449 101.297C122.861 101.297 123.199 101.191 123.465 100.98C123.73 100.77 123.927 100.492 124.055 100.148C124.182 99.8047 124.246 99.4323 124.246 99.0312C124.246 98.6302 124.182 98.2565 124.055 97.9102C123.927 97.5638 123.73 97.2839 123.465 97.0703C123.199 96.8568 122.861 96.75 122.449 96.75C122.038 96.75 121.699 96.8568 121.434 97.0703C121.168 97.2839 120.971 97.5638 120.844 97.9102C120.716 98.2565 120.652 98.6302 120.652 99.0312C120.652 99.4323 120.716 99.8047 120.844 100.148C120.971 100.492 121.168 100.77 121.434 100.98C121.699 101.191 122.038 101.297 122.449 101.297ZM127.497 98.3906V102H126.575V96H127.466V96.9375H127.544C127.685 96.6328 127.898 96.388 128.185 96.2031C128.471 96.0156 128.841 95.9219 129.294 95.9219C129.7 95.9219 130.056 96.0052 130.36 96.1719C130.665 96.3359 130.902 96.5859 131.071 96.9219C131.241 97.2552 131.325 97.6771 131.325 98.1875V102H130.403V98.25C130.403 97.7786 130.281 97.4115 130.036 97.1484C129.791 96.8828 129.455 96.75 129.028 96.75C128.734 96.75 128.471 96.8138 128.239 96.9414C128.01 97.069 127.829 97.2552 127.696 97.5C127.563 97.7448 127.497 98.0417 127.497 98.3906ZM138.9 94V102H137.932V95.0156H137.885L135.932 96.3125V95.3281L137.932 94H138.9Z" fill="white"/>
</svg>
