<svg width="387" height="374" viewBox="0 0 387 374" fill="none" xmlns="http://www.w3.org/2000/svg">
<path d="M378.525 124.312C371.611 120.179 362.733 121.535 357.362 127.552L238.928 260.226L291.125 116.746L291.255 116.421C293.543 110.07 291.833 102.691 286.411 98.0264C279.397 92.0056 268.819 92.797 262.779 99.8044L146.96 234.505L118.005 268.175L103.536 285.013C99.9723 289.165 95.4506 292.468 90.3831 294.551C85.331 296.65 79.775 297.385 74.4055 296.73C71.722 296.413 69.0197 295.739 66.8122 294.787C64.5824 293.837 62.7193 292.67 61.2893 291.16C59.8371 289.653 58.6985 287.781 57.8171 285.524C57.6147 284.939 57.4089 284.364 57.1877 283.773L56.7471 281.825C56.6737 281.5 56.584 281.191 56.5268 280.851L56.502 280.714L56.6012 280.676C55.7284 272.165 56.7795 263.981 58.4345 257.091C58.7174 255.875 59.0346 254.681 59.356 253.564C61.1433 247.276 63.2884 242.374 64.5524 239.748C77.3196 241.626 89.0633 238.098 100.293 232.298C122.175 220.966 139.676 204.422 155.46 185.956L155.469 185.959L159.652 181.277C160.018 180.857 160.29 180.402 160.471 179.904C161.073 178.25 160.594 176.32 159.129 175.17C159.098 173.616 158.889 171.997 159.51 170.786C160.859 168.191 162.913 165.937 164.698 163.575C180.822 142.274 194.337 119.513 200.694 93.3821C202.596 85.5505 202.667 76.4354 200.689 68.6502C195.892 49.7195 183.307 36.4581 165.954 27.6763C163.358 26.3594 159.269 25.138 158.658 23.1601C159.171 21.0481 158.026 18.8438 155.93 18.0814L141.58 12.861C139.334 12.0439 136.851 13.1944 136.031 15.4498L132.54 25.0446C132.058 26.3696 132.263 27.7955 132.993 28.8909C133.111 29.0618 133.23 29.2327 133.365 29.3882C133.831 29.9197 134.424 30.3376 135.129 30.594L149.479 35.8144C151.725 36.6315 154.221 35.475 155.038 33.229L155.195 32.7967C156.291 32.6209 157.533 32.6894 158.493 33.0919C161.412 34.2816 164.281 35.6977 166.953 37.3615C186.338 49.3619 200.191 71.1611 192.295 95.7322C184.005 121.533 169.954 144.067 153.516 165.296C152.671 166.362 150.665 167.898 150.107 167.589C144.119 164.187 142.146 169.375 139.436 172.497C125.137 188.928 109.643 203.935 90.0679 214.042C69.1552 224.844 44.2347 216.65 34.1536 195.425C31.2061 189.223 28.4244 182.625 27.3505 175.924C24.7718 159.758 23.2926 143.407 21.235 127.155C20.9525 124.977 20.0337 121.535 19.0026 121.065C14.602 119.091 14.6297 117.026 14.8941 113.93C15.9903 101.293 16.2407 88.4661 18.7465 76.1082C21.6174 61.957 25.4879 47.8077 30.8124 34.4002C41.3487 7.77813 75.6569 3.44618 96.603 10.8641C97.3172 11.1239 98.3705 12.0604 98.4387 12.5747C98.4379 12.6064 98.4336 12.6474 98.4268 12.6662C98.1668 14.0826 98.2384 15.1728 98.5467 16.0511C99.0165 17.0414 99.8639 17.8711 100.992 18.2813L115.464 23.5462C117.719 24.3667 120.218 23.2009 121.042 20.9361L124.536 11.3319C125.357 9.07647 124.191 6.57732 121.935 5.75682L107.463 0.491957C105.772 -0.123416 103.939 0.380391 102.782 1.63016C99.7115 1.82196 96.5469 2.09662 93.3465 1.8262C85.0303 1.10994 76.5613 -0.619579 68.3918 0.249876C50.8217 2.12617 34.7913 8.80843 26.5137 25.4194C20.3503 37.7982 15.5991 51.2972 12.7958 64.8239C9.38545 81.3646 8.7312 98.4611 6.71428 115.296C6.50813 117.062 5.51414 119.882 4.35132 120.183C0.393785 121.233 0.13539 123.874 0.188775 127.032C0.587035 150.683 2.97597 174.069 11.5173 196.309C16.9977 210.583 24.234 223.804 38.9587 231.065C39.4551 231.309 39.907 231.91 40.2572 232.644C40.5535 233.263 40.7875 233.965 40.8985 234.654C40.8951 234.664 40.901 234.677 40.8976 234.686C40.9488 235.364 40.9222 235.993 40.876 236.53C40.7897 237.03 40.6999 237.54 40.6229 238.045C40.6041 238.155 40.5836 238.211 40.5836 238.211L40.5477 238.485C40.1723 240.658 39.8003 242.821 39.5113 244.961L39.4856 245.09L37.7284 256.092C36.0503 263.25 34.8754 270.75 35.1109 278.849L35.389 282.238L35.5357 283.941C35.6022 284.518 35.732 285.098 35.8336 285.667L36.4824 289.148L37.5413 292.673C39.1101 297.34 41.6239 302.043 45.145 305.995C48.6396 309.99 53.0528 313.011 57.5063 315.131C62.0042 317.246 66.5124 318.514 71.1199 319.275C80.3544 320.772 89.9712 319.844 98.7006 316.646C107.457 313.489 115.419 308.16 121.739 301.318L136.834 285.038L167.047 252.475L231.1 183.433L176.332 333.98L207.926 345.474L207.936 345.446L207.952 345.462L324.197 215.237L270.902 361.734L302.496 373.227L385.708 144.493C388.454 136.916 385.445 128.457 378.525 124.312ZM17.7262 169.794C20.4088 182.954 40.6413 265.665 119.074 205.068C65.5628 247.618 29.8805 235.924 17.7262 169.794Z" fill="#252222" fill-opacity="0.2"/>
</svg>
